HIERARCHY
ROOT Hips
{
  OFFSET 5.72205e-005 65.662 3.42586
  CHANNELS 6 Xposition Yposition Zposition Zrotation Xrotation Yrotation
  JOINT Chest
  {
    OFFSET 0 8.7983 -4.7612
    CHANNELS 3 Zrotation Xrotation Yrotation
    JOINT Chest2
    {
      OFFSET 0 8.0291 0.4195
      CHANNELS 3 Zrotation Xrotation Yrotation
      JOINT Chest3
      {
        OFFSET 0 9.9351 -2.2114
        CHANNELS 3 Zrotation Xrotation Yrotation
        JOINT Neck
        {
          OFFSET 0 22.3885 -0.4656
          CHANNELS 3 Zrotation Xrotation Yrotation
          JOINT Head
          {
            OFFSET -0.0001 12.643 3.4389
            CHANNELS 3 Zrotation Xrotation Yrotation
            End Site
            {
              OFFSET 0.0001 17.6655 0.5274
            }
          }
        }
        JOINT LeftCollar
        {
          OFFSET 2.2603 21.606 7.4023
          CHANNELS 3 Zrotation Xrotation Yrotation
          JOINT LeftShoulder
          {
            OFFSET 13.5163 -1.1332 -5.0146
            CHANNELS 3 Zrotation Xrotation Yrotation
            JOINT LeftElbow
            {
              OFFSET -0.0995 -28.05 -0.2431
              CHANNELS 3 Zrotation Xrotation Yrotation
              JOINT LeftWrist
              {
                OFFSET 0.0679 -23.3996 -0.1402
                CHANNELS 3 Zrotation Xrotation Yrotation
                JOINT LeftFinger1
                {
                  OFFSET 0.7932 -9.069 2.5189
                  CHANNELS 3 Zrotation Xrotation Yrotation
                  JOINT LeftFinger11
                  {
                    OFFSET -0.8272 -3.3923 0.5977
                    CHANNELS 3 Zrotation Xrotation Yrotation
                    JOINT LeftFinger12
                    {
                      OFFSET -0.5649 -2.3158 0.4082
                      CHANNELS 3 Zrotation Xrotation Yrotation
                      End Site
                      {
                        OFFSET -0.4919 -1.6479 0.2673
                      }
                    }
                  }
                }
                JOINT LeftFinger2
                {
                  OFFSET 0.9159 -9.2044 0.2193
                  CHANNELS 3 Zrotation Xrotation Yrotation
                  JOINT LeftFinger21
                  {
                    OFFSET 0.0117 -4.1944 -0.0248
                    CHANNELS 3 Zrotation Xrotation Yrotation
                    JOINT LeftFinger22
                    {
                      OFFSET 0.0071 -2.3249 -0.0142
                      CHANNELS 3 Zrotation Xrotation Yrotation
                      End Site
                      {
                        OFFSET -0.1475 -2.0882 0.0028
                      }
                    }
                  }
                }
                JOINT LeftFinger3
                {
                  OFFSET 0.6113 -8.7231 -2.0637
                  CHANNELS 3 Zrotation Xrotation Yrotation
                  JOINT LeftFinger31
                  {
                    OFFSET -0.1927 -3.8059 -0.2383
                    CHANNELS 3 Zrotation Xrotation Yrotation
                    JOINT LeftFinger32
                    {
                      OFFSET -0.1091 -2.1688 -0.1362
                      CHANNELS 3 Zrotation Xrotation Yrotation
                      End Site
                      {
                        OFFSET -0.2358 -1.9176 -0.0906
                      }
                    }
                  }
                }
                JOINT LeftFinger4
                {
                  OFFSET -0.6151 -8.0947 -3.5641
                  CHANNELS 3 Zrotation Xrotation Yrotation
                  JOINT LeftFinger41
                  {
                    OFFSET -0.4882 -2.341 -0.6462
                    CHANNELS 3 Zrotation Xrotation Yrotation
                    JOINT LeftFinger42
                    {
                      OFFSET -0.3575 -1.7167 -0.4742
                      CHANNELS 3 Zrotation Xrotation Yrotation
                      End Site
                      {
                        OFFSET -0.4187 -1.5237 -0.3496
                      }
                    }
                  }
                }
                JOINT LeftFinger0
                {
                  OFFSET -1.42 -1.8761 1.4223
                  CHANNELS 3 Zrotation Xrotation Yrotation
                  JOINT LeftFinger01
                  {
                    OFFSET -1.1471 -3.4929 2.6334
                    CHANNELS 3 Zrotation Xrotation Yrotation
                    JOINT LeftFinger02
                    {
                      OFFSET -0.823 -2.3 1.6571
                      CHANNELS 3 Zrotation Xrotation Yrotation
                      End Site
                      {
                        OFFSET -0.5822 -1.6914 1.1582
                      }
                    }
                  }
                }
              }
            }
          }
        }
        JOINT RightCollar
        {
          OFFSET -2.2603 21.606 7.4023
          CHANNELS 3 Zrotation Xrotation Yrotation
          JOINT RightShoulder
          {
            OFFSET -13.5187 -1.1334 -5.0155
            CHANNELS 3 Zrotation Xrotation Yrotation
            JOINT RightElbow
            {
              OFFSET 0.0994 -28.0499 -0.2431
              CHANNELS 3 Zrotation Xrotation Yrotation
              JOINT RightWrist
              {
                OFFSET -0.0679 -23.3996 -0.1402
                CHANNELS 3 Zrotation Xrotation Yrotation
                JOINT RightFinger1
                {
                  OFFSET -0.7932 -9.0691 2.5189
                  CHANNELS 3 Zrotation Xrotation Yrotation
                  JOINT RightFinger11
                  {
                    OFFSET 0.8272 -3.3923 0.5977
                    CHANNELS 3 Zrotation Xrotation Yrotation
                    JOINT RightFinger12
                    {
                      OFFSET 0.565 -2.3158 0.4082
                      CHANNELS 3 Zrotation Xrotation Yrotation
                      End Site
                      {
                        OFFSET 0.4919 -1.6479 0.2673
                      }
                    }
                  }
                }
                JOINT RightFinger2
                {
                  OFFSET -0.916 -9.2044 0.2193
                  CHANNELS 3 Zrotation Xrotation Yrotation
                  JOINT RightFinger21
                  {
                    OFFSET -0.0117 -4.1944 -0.0248
                    CHANNELS 3 Zrotation Xrotation Yrotation
                    JOINT RightFinger22
                    {
                      OFFSET -0.0071 -2.3249 -0.0142
                      CHANNELS 3 Zrotation Xrotation Yrotation
                      End Site
                      {
                        OFFSET 0.1475 -2.0882 0.0028
                      }
                    }
                  }
                }
                JOINT RightFinger3
                {
                  OFFSET -0.6113 -8.7231 -2.0637
                  CHANNELS 3 Zrotation Xrotation Yrotation
                  JOINT RightFinger31
                  {
                    OFFSET 0.1927 -3.8059 -0.2383
                    CHANNELS 3 Zrotation Xrotation Yrotation
                    JOINT RightFinger32
                    {
                      OFFSET 0.1091 -2.1688 -0.1362
                      CHANNELS 3 Zrotation Xrotation Yrotation
                      End Site
                      {
                        OFFSET 0.2358 -1.9176 -0.0906
                      }
                    }
                  }
                }
                JOINT RightFinger4
                {
                  OFFSET 0.6151 -8.0947 -3.564
                  CHANNELS 3 Zrotation Xrotation Yrotation
                  JOINT RightFinger41
                  {
                    OFFSET 0.4882 -2.341 -0.6462
                    CHANNELS 3 Zrotation Xrotation Yrotation
                    JOINT RightFinger42
                    {
                      OFFSET 0.3574 -1.7166 -0.4742
                      CHANNELS 3 Zrotation Xrotation Yrotation
                      End Site
                      {
                        OFFSET 0.4187 -1.5237 -0.3496
                      }
                    }
                  }
                }
                JOINT RightFinger0
                {
                  OFFSET 1.4199 -1.8761 1.4221
                  CHANNELS 3 Zrotation Xrotation Yrotation
                  JOINT RightFinger01
                  {
                    OFFSET 1.1472 -3.4929 2.6336
                    CHANNELS 3 Zrotation Xrotation Yrotation
                    JOINT RightFinger02
                    {
                      OFFSET 0.8229 -2.3 1.6571
                      CHANNELS 3 Zrotation Xrotation Yrotation
                      End Site
                      {
                        OFFSET 0.5822 -1.6914 1.1582
                      }
                    }
                  }
                }
              }
            }
          }
        }
      }
    }
  }
  JOINT RightHip
  {
    OFFSET -9.412 3.9771 -0.7758
    CHANNELS 3 Zrotation Xrotation Yrotation
    JOINT RightKnee
    {
      OFFSET -0.7531 -40.938 0
      CHANNELS 3 Zrotation Xrotation Yrotation
      JOINT RightAnkle
      {
        OFFSET 0 -40.1986 0
        CHANNELS 3 Zrotation Xrotation Yrotation
        JOINT RightToe
        {
          OFFSET 0 -4.4182 9.239
          CHANNELS 3 Zrotation Xrotation Yrotation
          End Site
          {
            OFFSET 0 0 6.1981
          }
        }
      }
    }
  }
  JOINT LeftHip
  {
    OFFSET 9.4119 3.9773 -0.7758
    CHANNELS 3 Zrotation Xrotation Yrotation
    JOINT LeftKnee
    {
      OFFSET 0.7532 -40.9383 0
      CHANNELS 3 Zrotation Xrotation Yrotation
      JOINT LeftAnkle
      {
        OFFSET 0 -40.1986 0
        CHANNELS 3 Zrotation Xrotation Yrotation
        JOINT LeftToe
        {
          OFFSET 0 -4.4182 9.239
          CHANNELS 3 Zrotation Xrotation Yrotation
          End Site
          {
            OFFSET 0 0 6.1981
          }
        }
      }
    }
  }
}
MOTION
Frames:	5
Frame Time:	0.0333333
-0.648763 66.2394 23.1097 -0.000825723 10.6066 -179.991 0.00587042 4.40829 -0.15146 0.0235744 8.81656 -0.304735 0.0235745 8.81658 -0.304736 3.46878e-007 -21.5145 8.73492e-007 4.36967e-008 -36.1919 -1.52266e-007 -22.7911 11.0558 20.5389 -142.683 -82.7547 -170.013 -48.4259 -57.6513 -34.8522 -0.938361 20.8052 3.77898 2.09119e-006 -1.26842e-005 3.77228e-006 8.98314e-006 1.01277e-005 1.8813e-006 2.75149e-006 5.30373e-006 4.15761e-008 2.09119e-006 -1.26842e-005 3.77228e-006 -0.0127933 0.00232489 8.56188e-005 2.63174e-006 8.83179e-007 -2.72249e-006 2.09119e-006 -1.26842e-005 3.77228e-006 -0.0160125 0.00298456 0.000845272 1.09746e-006 3.93397e-008 -2.15104e-006 2.09119e-006 -1.26842e-005 3.77228e-006 -0.0125956 0.00312684 0.00283106 -6.60604e-007 9.51608e-006 3.73069e-006 2.09119e-006 -1.26842e-005 3.77228e-006 8.98314e-006 1.01277e-005 1.8813e-006 2.75149e-006 5.30373e-006 4.15761e-008 15.7091 10.8005 -13.1509 142.937 -82.1339 166.169 14.9061 -38.3216 7.67062 7.04726 4.02477 1.56103 -0 0 7.95139e-016 -6.30334e-006 2.31818e-006 -1.49531e-006 1.59028e-015 0 -9.54166e-015 -0 0 7.95139e-016 0.0129487 0.00230745 -8.34124e-005 3.5489e-006 6.54671e-008 6.26565e-007 -0 0 7.95139e-016 0.0163319 0.00304035 -0.000879728 7.95139e-015 6.36111e-015 2.22639e-014 -0 0 7.95139e-016 0.0146488 0.00369916 -0.0032874 4.77083e-015 -6.36111e-015 1.59028e-015 -0 0 7.95139e-016 -6.30334e-006 2.31818e-006 -1.49531e-006 1.59028e-015 0 -9.54166e-015 -6.25142 -8.79035 -13.2689 -2.21793 44.323 1.7204 11.473 -22.1224 -1.73983 -2.09966e-015 -1.12954e-007 -3.18055e-015 7.25297 -8.71183 13.3404 1.99691 44.1904 -1.58513 -12.28 -22.2255 1.18276 7.85403e-007 -3.88621e-007 -4.8107e-006 
-0.6495 66.1239 23.7891 -0.00142918 9.2104 -179.982 0.00630138 4.09132 -0.149354 0.0234168 8.18263 -0.300313 0.0234169 8.18264 -0.300314 -7.2312e-007 -21.028 -1.94021e-006 -1.33708e-007 -35.3811 -2.70474e-007 -22.9056 11.0897 20.9247 -142.683 -82.7547 -170.013 -49.6044 -57.895 -35.8671 -0.800929 21.297 4.03219 -8.82781e-032 -3.18055e-015 -1.59028e-015 -6.36111e-015 3.18055e-015 3.97569e-015 9.21275e-006 -5.45286e-006 7.4149e-006 -8.82781e-032 -3.18055e-015 -1.59028e-015 -0.0128666 0.00232627 8.11782e-005 4.9304e-006 5.68346e-006 7.94312e-006 -8.82781e-032 -3.18055e-015 -1.59028e-015 -0.0160375 0.00300045 0.000854014 -6.57914e-006 -1.08556e-005 7.00164e-007 -8.82781e-032 -3.18055e-015 -1.59028e-015 -0.0126348 0.00311593 0.00283159 1.97232e-006 -3.83096e-007 1.01013e-006 -8.82781e-032 -3.18055e-015 -1.59028e-015 -6.36111e-015 3.18055e-015 3.97569e-015 9.21275e-006 -5.45286e-006 7.4149e-006 15.9027 10.9256 -13.5567 142.778 -82.1626 166.02 15.6107 -39.2398 8.1627 6.90135 4.73265 1.39662 -4.34658e-006 -1.74314e-006 -3.74288e-007 2.38441e-006 1.40027e-006 -7.32561e-007 -2.76356e-006 -7.10434e-007 -1.55733e-005 -4.34658e-006 -1.74314e-006 -3.74288e-007 0.0129712 0.00233189 -8.89481e-005 -1.5956e-006 -4.61398e-006 -1.42223e-005 -4.34658e-006 -1.74314e-006 -3.74288e-007 0.0162688 0.00302424 -0.000876258 1.63961e-006 1.56775e-006 -3.92293e-006 -4.34658e-006 -1.74314e-006 -3.74288e-007 0.0144858 0.00365771 -0.00324727 -2.06779e-006 3.09307e-007 -8.94831e-006 -4.34658e-006 -1.74314e-006 -3.74288e-007 2.38441e-006 1.40027e-006 -7.32561e-007 -2.76356e-006 -7.10434e-007 -1.55733e-005 -6.27477 -10.6691 -13.3663 -2.21694 44.3039 1.71128 11.3505 -21.7396 -1.93658 7.95139e-016 1.12936e-007 -3.18055e-015 7.27713 -10.6034 13.44 1.99574 44.169 -1.57582 -12.1516 -21.8404 1.41138 8.46244e-007 -6.95102e-008 2.62063e-008 
-0.650206 66.0124 24.4714 -0.00181543 7.81193 -179.974 0.00676815 3.77248 -0.147209 0.0233507 7.54493 -0.29583 0.0233508 7.54494 -0.295831 -7.25758e-007 -20.5411 -2.03444e-006 -7.32936e-009 -34.5687 7.59304e-008 -23.0203 11.1228 21.3107 -142.683 -82.7547 -170.013 -50.799 -58.1276 -36.8984 -0.665326 21.7894 4.28502 3.18055e-015 -3.18055e-015 7.95139e-016 6.36111e-015 0 -3.18055e-015 3.18055e-015 0 -3.97569e-015 3.18055e-015 -3.18055e-015 7.95139e-016 -0.0128133 0.00232985 8.02645e-005 9.54166e-015 6.36111e-015 -7.95139e-016 3.18055e-015 -3.18055e-015 7.95139e-016 -0.0159956 0.00298448 0.000863232 6.36111e-015 6.36111e-015 2.38542e-015 3.18055e-015 -3.18055e-015 7.95139e-016 -0.0125579 0.00312283 0.00282074 3.18055e-015 3.18055e-015 -7.95139e-016 3.18055e-015 -3.18055e-015 7.95139e-016 6.36111e-015 0 -3.18055e-015 3.18055e-015 0 -3.97569e-015 16.0973 11.0492 -13.963 142.619 -82.1913 165.871 16.3357 -40.1541 8.67662 6.75724 5.44125 1.23373 3.18055e-015 3.18055e-015 -7.95139e-016 2.00701e-006 -6.74256e-007 -2.33212e-006 -2.00701e-006 6.74256e-007 2.33212e-006 3.18055e-015 3.18055e-015 -7.95139e-016 0.0129314 0.00231241 -9.71502e-005 -7.94455e-007 1.12957e-005 2.45983e-007 3.18055e-015 3.18055e-015 -7.95139e-016 0.0163136 0.00304042 -0.000879087 3.3427e-007 -2.13378e-005 5.02829e-006 3.18055e-015 3.18055e-015 -7.95139e-016 0.0145584 0.00367155 -0.00325506 -8.10717e-006 3.04606e-006 -1.94863e-006 3.18055e-015 3.18055e-015 -7.95139e-016 2.00701e-006 -6.74256e-007 -2.33212e-006 -2.00701e-006 6.74256e-007 2.33212e-006 -6.30162 -12.5536 -13.4655 -2.21575 44.2851 1.70226 11.2295 -21.357 -2.13195 -2.98177e-016 1.12858e-007 -3.18055e-015 7.3048 -12.5014 13.5414 1.99466 44.1486 -1.56662 -12.025 -21.4552 1.63847 -1.2921e-015 3.38641e-007 -3.18055e-015 
-0.650877 65.9049 25.1565 -0.0019702 6.41156 -179.965 0.00727061 3.45207 -0.145027 0.0233774 6.90411 -0.291288 0.0233774 6.90412 -0.291289 -5.65035e-007 -20.0539 -1.87886e-006 4.31338e-008 -33.7547 4.64465e-008 -23.1353 11.1551 21.6969 -142.683 -82.7547 -170.013 -52.0097 -58.3487 -37.9457 -0.531557 22.2825 4.53759 3.18055e-015 3.18055e-015 -5.56597e-015 3.18055e-015 1.27222e-014 -0 3.18055e-015 3.18055e-015 -5.56597e-015 3.18055e-015 3.18055e-015 -5.56597e-015 -0.0127867 0.00232946 8.98298e-005 -4.41391e-031 -3.18055e-015 -7.95139e-015 3.18055e-015 3.18055e-015 -5.56597e-015 -0.0160771 0.00300459 0.000862024 -2.64834e-031 -3.18055e-015 -4.77083e-015 3.18055e-015 3.18055e-015 -5.56597e-015 -0.0125335 0.00311941 0.00282728 -3.18055e-015 -6.36111e-015 6.36111e-015 3.18055e-015 3.18055e-015 -5.56597e-015 3.18055e-015 1.27222e-014 -0 3.18055e-015 3.18055e-015 -5.56597e-015 16.2929 11.1715 -14.37 142.458 -82.22 165.721 17.0821 -41.0639 9.21329 6.61496 6.15053 1.07241 7.94146e-007 -1.85193e-006 -2.47931e-007 1.20777e-006 1.17808e-006 -2.08872e-006 3.17658e-006 -2.83476e-007 -9.91725e-007 7.94146e-007 -1.85193e-006 -2.47931e-007 0.01293 0.00231524 -9.1301e-005 3.97056e-006 1.14436e-006 -1.23949e-006 7.94146e-007 -1.85193e-006 -2.47931e-007 0.0164023 0.00304915 -0.000888805 4.55408e-006 -5.83195e-007 1.32974e-006 7.94146e-007 -1.85193e-006 -2.47931e-007 0.014576 0.003683 -0.00326541 6.55605e-006 -3.23573e-007 -1.00681e-006 7.94146e-007 -1.85193e-006 -2.47931e-007 1.20777e-006 1.17808e-006 -2.08872e-006 3.17658e-006 -2.83476e-007 -9.91725e-007 -6.33204 -14.443 -13.5668 -2.21455 44.2671 1.69326 11.1101 -20.9744 -2.32591 -1.69209e-006 -6.42282e-007 -6.15952e-008 7.33611 -14.4055 13.6448 1.99386 44.1299 -1.55752 -11.9001 -21.0702 1.86403 -8.46308e-007 1.82309e-007 -2.32644e-008 
-0.651514 65.8016 25.8441 -0.00192158 5.0097 -179.956 0.0078088 3.13044 -0.14281 0.0234982 6.26086 -0.286691 0.0234983 6.26088 -0.286692 3.99546e-007 -19.5665 1.26294e-006 -8.78158e-008 -32.939 -1.24999e-007 -23.2506 11.1867 22.0832 -142.683 -82.7547 -170.014 -53.2356 -58.5581 -39.0085 -0.399714 22.7763 4.78984 1.85674e-006 -1.0149e-006 -3.1194e-006 5.14441e-006 -6.58746e-006 2.63915e-006 -1.59028e-014 9.54166e-015 -1.74931e-014 1.85674e-006 -1.0149e-006 -3.1194e-006 -0.012818 0.00230805 7.57957e-005 0 0 -1.59028e-015 1.85674e-006 -1.0149e-006 -3.1194e-006 -0.016033 0.00298885 0.000854091 -3.18055e-015 3.18055e-015 2.38542e-015 1.85674e-006 -1.0149e-006 -3.1194e-006 -0.012547 0.00311209 0.00281779 -3.18055e-015 3.18055e-015 8.74653e-015 1.85674e-006 -1.0149e-006 -3.1194e-006 5.14441e-006 -6.58746e-006 2.63915e-006 -1.59028e-014 9.54166e-015 -1.74931e-014 16.4895 11.2923 -14.7776 142.296 -82.2486 165.569 17.851 -41.9689 9.77384 6.47443 6.86043 0.91256 -3.18055e-015 6.36111e-015 -4.77083e-015 -5.75742e-006 2.9967e-006 7.70741e-007 -8.18156e-007 -6.02344e-006 3.68298e-006 -3.18055e-015 6.36111e-015 -4.77083e-015 0.0129644 0.00231526 -9.42534e-005 -3.19968e-006 8.92567e-006 4.4326e-006 -3.18055e-015 6.36111e-015 -4.77083e-015 0.0163645 0.00304477 -0.000869771 -5.96543e-006 -1.21132e-006 3.59057e-006 -3.18055e-015 6.36111e-015 -4.77083e-015 0.0146138 0.0036816 -0.00326692 -4.76248e-006 6.74565e-007 1.49912e-006 -3.18055e-015 6.36111e-015 -4.77083e-015 -5.75742e-006 2.9967e-006 7.70741e-007 -8.18156e-007 -6.02344e-006 3.68298e-006 -6.36612 -16.3375 -13.6702 -2.2137 44.2506 1.6844 10.9921 -20.592 -2.51855 -8.46073e-007 -9.8734e-008 -2.9395e-008 7.37133 -16.313 13.7506 1.99276 44.1111 -1.54845 -11.777 -20.6851 2.08813 -2.98177e-016 -1.12839e-007 -3.18055e-015 
